<?xml version="1.0" encoding="UTF-8" standalone="no"?><!DOCTYPE svg PUBLIC "-//W3C//DTD SVG 1.1//EN" "http://www.w3.org/Graphics/SVG/1.1/DTD/svg11.dtd"><svg width="100%" height="100%" viewBox="0 0 100 100" version="1.1" xmlns="http://www.w3.org/2000/svg" xmlns:xlink="http://www.w3.org/1999/xlink" xml:space="preserve" xmlns:serif="http://www.serif.com/" style="fill-rule:evenodd;clip-rule:evenodd;stroke-linejoin:round;stroke-miterlimit:2;"><path d="M22,25.442c0,1.901 1.558,3.442 3.479,3.442l28.832,0c3.286,0 5.991,1.004 8.117,3.011c2.126,2.008 3.189,4.589 3.189,7.744c0,2.916 -1.063,5.306 -3.189,7.17c-2.126,1.817 -4.832,2.725 -8.117,2.725l-12.531,0c-1.921,0 -3.479,1.541 -3.479,3.442c0,1.901 1.558,3.442 3.479,3.442l13.835,0l12.466,19.79c0.773,1.195 1.86,1.793 3.261,1.793c1.546,0 2.633,-0.597 3.261,-1.793c0.628,-1.243 0.507,-2.557 -0.362,-3.944l-11.089,-17.639c2.996,-1.338 5.363,-3.298 7.103,-5.88c1.739,-2.629 2.609,-5.664 2.609,-9.106c0,-3.489 -0.797,-6.549 -2.392,-9.178c-1.546,-2.629 -3.721,-4.684 -6.523,-6.166c-2.802,-1.53 -6.016,-2.294 -9.64,-2.294l-28.832,0c-1.921,0 -3.479,1.541 -3.479,3.442Z" style="fill:#fff;"/></svg>